<?xml version="1.0" standalone="no"?>
<!DOCTYPE svg PUBLIC "-//W3C//DTD SVG 20010904//EN"
 "http://www.w3.org/TR/2001/REC-SVG-20010904/DTD/svg10.dtd">
<svg version="1.0" 
    xmlns="http://www.w3.org/2000/svg"
    width="611.000000pt" 
    height="304.000000pt" 
    viewBox="0 0 100.000000 125.000000"

    preserveAspectRatio="xMidYMid meet">
<!-- <metadata>
Created by potrace 1.16, written by Peter Selinger 2001-2019
viewBox="0 0 611.000000 304.000000" 
</metadata> -->
<g transform="translate(0.000000,304.000000) scale(0.100000,-0.100000)"
    fill="#000000" 
    stroke="none">
<path d="M1945 2728 c-11 -6 -23 -16 -27 -22 -4 -6 -7 -414 -7 -906 1 -492 4
-881 8 -865 23 95 94 181 189 227 58 29 76 33 147 33 44 0 92 -3 108 -8 l27
-7 0 253 c0 284 3 297 64 297 27 0 82 -37 315 -211 156 -116 289 -208 296
-206 7 3 146 105 309 227 l296 221 0 263 c0 379 14 376 -350 92 l-262 -204
-67 52 c-77 60 -450 350 -771 600 -124 97 -232 176 -240 176 -8 0 -24 -6 -35
-12z"/>
<path d="M3152 1185 c-235 -73 -309 -386 -138 -582 69 -78 204 -121 302 -94
148 40 217 204 140 335 l-27 46 -94 0 -95 0 0 -74 0 -75 37 -3 c47 -4 59 -34
19 -44 -98 -24 -186 62 -173 171 10 91 78 141 179 132 l58 -5 0 98 0 98 -31 6
c-50 10 -130 6 -177 -9z"/>
<path d="M4383 1185 c-99 -30 -179 -99 -224 -194 -19 -37 -23 -64 -23 -136 -1
-82 2 -96 32 -157 38 -77 92 -130 171 -167 48 -22 69 -26 146 -25 110 0 165
23 240 99 63 62 94 127 102 211 23 247 -212 442 -444 369z m184 -213 c43 -30
66 -85 60 -138 -9 -84 -80 -141 -163 -131 -192 21 -166 310 27 294 26 -2 60
-13 76 -25z"/>
<path d="M5657 1186 c-81 -30 -137 -86 -157 -157 -6 -19 -10 -141 -10 -271 l0
-238 100 0 100 0 0 234 c0 251 2 261 51 254 49 -7 50 -69 0 -76 -20 -3 -21 -9
-21 -93 l0 -89 36 0 c66 0 126 22 164 60 97 97 71 277 -52 353 -57 35 -151 46
-211 23z"/>
<path d="M3570 856 l0 -336 100 0 100 0 0 245 0 245 34 0 c38 0 66 -21 66 -50
0 -26 -27 -50 -56 -50 -24 0 -24 -2 -24 -86 0 -80 3 -93 48 -195 l47 -109 103
0 c96 0 103 1 97 18 -3 11 -27 72 -54 138 l-49 118 33 37 c18 20 38 53 45 74
31 94 -16 209 -105 254 -46 24 -60 26 -217 29 l-168 4 0 -336z"/>
<path d="M4902 927 c3 -259 3 -263 29 -312 89 -175 387 -142 444 48 12 39 15
106 15 289 l0 238 -100 0 -100 0 0 -226 c0 -136 -4 -233 -10 -245 -14 -25 -56
-25 -70 0 -6 12 -10 109 -10 245 l0 226 -101 0 -100 0 3 -263z"/>
<path d="M2192 983 c-90 -44 -109 -165 -37 -238 58 -57 147 -60 204 -6 30 28
31 33 31 108 0 89 -10 111 -64 137 -43 20 -92 20 -134 -1z"/>
<path d="M1911 685 c0 -60 3 -115 7 -121 15 -23 54 -34 123 -34 l73 0 -45 28
c-70 45 -117 108 -145 197 -12 38 -13 33 -13 -70z"/>
</g>
</svg>
